D:\PredSim\limbproperties\Ratio80_uphill30\Ratio80_uphill30_IK_walking_1.5.mot
version=1
nRows=4
nColumns=124
inDegrees=yes
endheader
                time	         pelvis_tilt	         pelvis_list	     pelvis_rotation	           pelvis_tx	           pelvis_ty	           pelvis_tz	       hip_flexion_r	     hip_adduction_r	      hip_rotation_r	        knee_angle_r	       ankle_angle_r	    subtalar_angle_r	         mtp_angle_r	       hip_flexion_l	     hip_adduction_l	      hip_rotation_l	        knee_angle_l	       ankle_angle_l	    subtalar_angle_l	         mtp_angle_l	    lumbar_extension	      lumbar_bending	     lumbar_rotation	          arm_flex_r	           arm_add_r	           arm_rot_r	        elbow_flex_r	          arm_flex_l	           arm_add_l	           arm_rot_l	        elbow_flex_l	glut_med1_r/activation	glut_med2_r/activation	glut_med3_r/activation	glut_min1_r/activation	glut_min2_r/activation	glut_min3_r/activation	semimem_r/activation	semiten_r/activation	bifemlh_r/activation	bifemsh_r/activation	    sar_r/activation	add_long_r/activation	add_brev_r/activation	add_mag1_r/activation	add_mag2_r/activation	add_mag3_r/activation	    tfl_r/activation	   pect_r/activation	   grac_r/activation	glut_max1_r/activation	glut_max2_r/activation	glut_max3_r/activation	iliacus_r/activation	  psoas_r/activation	quad_fem_r/activation	    gem_r/activation	   peri_r/activation	rect_fem_r/activation	vas_med_r/activation	vas_int_r/activation	vas_lat_r/activation	med_gas_r/activation	lat_gas_r/activation	 soleus_r/activation	tib_post_r/activation	flex_dig_r/activation	flex_hal_r/activation	tib_ant_r/activation	per_brev_r/activation	per_long_r/activation	per_tert_r/activation	ext_dig_r/activation	ext_hal_r/activation	glut_med1_l/activation	glut_med2_l/activation	glut_med3_l/activation	glut_min1_l/activation	glut_min2_l/activation	glut_min3_l/activation	semimem_l/activation	semiten_l/activation	bifemlh_l/activation	bifemsh_l/activation	    sar_l/activation	add_long_l/activation	add_brev_l/activation	add_mag1_l/activation	add_mag2_l/activation	add_mag3_l/activation	    tfl_l/activation	   pect_l/activation	   grac_l/activation	glut_max1_l/activation	glut_max2_l/activation	glut_max3_l/activation	iliacus_l/activation	  psoas_l/activation	quad_fem_l/activation	    gem_l/activation	   peri_l/activation	rect_fem_l/activation	vas_med_l/activation	vas_int_l/activation	vas_lat_l/activation	med_gas_l/activation	lat_gas_l/activation	 soleus_l/activation	tib_post_l/activation	flex_dig_l/activation	flex_hal_l/activation	tib_ant_l/activation	per_brev_l/activation	per_long_l/activation	per_tert_l/activation	ext_dig_l/activation	ext_hal_l/activation	 ercspn_r/activation	 ercspn_l/activation	 intobl_r/activation	 intobl_l/activation	 extobl_r/activation	 extobl_l/activation	
          0.00000000	        -19.67764740	        -10.43341981	          2.39689248	          0.00000000	          0.81212394	          0.00408497	         55.80068486	          9.20309417	        -13.13458501	        -52.49117185	         21.28393343	        -13.89065791	          0.23282417	         -9.89088774	         -7.70095629	         -1.72566855	        -18.35060604	         -7.12423839	        -15.00007599	         36.25844577	        -15.70886452	          9.23419877	         -5.65165023	         -1.54951459	        -20.90077930	          8.75570004	         69.80974671	          9.82336892	        -13.65642231	         16.44767994	         60.99567145	          0.05000000	          0.09761066	          0.40393955	          0.05000000	          0.05000000	          0.05000003	          0.85064266	          0.05000000	          0.95094593	          0.06650898	          0.11662233	          0.20807709	          0.74038413	          0.69471714	          0.50932458	          0.31229249	          0.06000778	          0.05038530	          0.05766234	          0.50005178	          0.32992528	          0.33002262	          0.08844207	          0.08844207	          0.86962960	          0.13577949	          0.70536629	          0.05000000	          0.27976496	          0.28383678	          0.21703837	          0.05000000	          0.05000000	          0.05000000	          0.05766232	          0.05000000	          0.05000000	          0.81984330	          0.74194666	          0.37324233	          0.69602167	          0.91139051	          0.84612851	          0.14017797	          0.06630263	          0.05122242	          0.30727901	          0.21307553	          0.13598336	          0.05000000	          0.05000000	          0.05000000	          0.05000000	          0.08844208	          0.87136680	          0.13885576	          0.05000005	          0.05000000	          0.07760932	          0.80270462	          0.31319775	          0.05000000	          0.07419384	          0.06267869	          0.05699029	          0.93509148	          0.96335252	          0.22581079	          0.08844205	          0.07668960	          0.63178133	          0.27671769	          0.27671769	          0.27671769	          0.71078491	          0.93205946	          0.19356498	          0.90835864	          0.99997492	          0.99998084	          0.05000000	          0.56450689	          0.83295696	          0.05000000	          0.05000000	          0.05000000	          0.29211180	          0.17393787	          0.05000000	          0.05000000	          0.05000000	          0.05000000	
          0.00919481	        -19.72163928	        -10.43352572	          2.82768269	          0.01579329	          0.81229571	          0.00485942	         54.61901841	          9.65529791	        -12.66207872	        -51.68585178	         21.09558605	        -14.21582779	          0.23150222	         -9.81019651	         -8.00477209	         -1.63992709	        -19.36854342	        -10.19059780	        -15.10283118	         36.21091358	        -15.52229783	          9.20671765	         -5.90788407	         -2.52687385	        -20.83627718	          8.11626294	         70.16922864	          9.94431917	        -13.67979322	         16.89165017	         61.11370897	          0.05000000	          0.08463987	          0.35026289	          0.05000000	          0.05000000	          0.05000000	          0.83443806	          0.05000000	          0.90120178	          0.05767108	          0.10112522	          0.18042721	          0.71240099	          0.64875633	          0.47942637	          0.30655603	          0.05203377	          0.06649889	          0.05000000	          0.51163122	          0.30141337	          0.28617591	          0.07668963	          0.07668964	          0.91917456	          0.11773672	          0.81733660	          0.05000000	          0.31681224	          0.32346647	          0.24581334	          0.06649889	          0.06649889	          0.06649889	          0.05000000	          0.05000000	          0.05000000	          0.71090014	          0.69567623	          0.37598817	          0.60353229	          0.79028230	          0.73369249	          0.12155071	          0.06649889	          0.06649889	          0.26644689	          0.18476144	          0.11791349	          0.05000000	          0.05000000	          0.05000000	          0.05000000	          0.07668964	          0.75557705	          0.22970208	          0.18041398	          0.15644002	          0.13565183	          0.79895847	          0.27157913	          0.05000000	          0.06433516	          0.06649887	          0.06649890	          0.81083381	          0.96140813	          0.19580440	          0.07668962	          0.06649890	          0.68608437	          0.23994664	          0.23994664	          0.23994664	          0.66972557	          0.90953868	          0.19144701	          0.87525806	          0.99998445	          0.99998812	          0.05000000	          0.52597878	          0.80941610	          0.05000000	          0.05000000	          0.05000000	          0.26704425	          0.15212487	          0.05000000	          0.05766233	          0.05000000	          0.05000000	
          0.01838961	        -19.76257599	        -10.39063237	          3.25545952	          0.03182367	          0.81227133	          0.00558796	         53.21192144	         10.13482280	        -12.00045030	        -51.14763779	         21.35811782	        -14.57807097	          0.17443257	         -9.61308642	         -8.28017657	         -1.50913674	        -20.54352163	        -13.30041327	        -15.06898018	         35.84754051	        -15.29711191	          9.14583968	         -6.14560875	         -3.50498059	        -20.72812153	          7.47265611	         70.41684109	         10.02747279	        -13.68536349	         17.32987839	         61.13902944	          0.33202468	          0.43250624	          0.59718395	          0.05817547	          0.30211906	          0.41103063	          0.78547996	          0.27167575	          0.82042787	          0.06649889	          0.08768741	          0.15645152	          0.61773508	          0.56254771	          0.41571880	          0.29497775	          0.05000000	          0.05766234	          0.39512545	          0.66002739	          0.42348360	          0.29227740	          0.06649889	          0.06649889	          0.94989084	          0.36802328	          0.88675459	          0.05000000	          0.34188594	          0.35786075	          0.27043800	          0.05766233	          0.05766233	          0.05766233	          0.18090192	          0.07667459	          0.06649889	          0.82076742	          0.60323275	          0.32602577	          0.52333317	          0.86998179	          0.83489794	          0.23994664	          0.05766233	          0.05766233	          0.38262187	          0.16020980	          0.10224481	          0.05000000	          0.05000000	          0.05000000	          0.05000000	          0.06649890	          0.67799231	          0.35293143	          0.15644005	          0.13565182	          0.11762602	          0.84834344	          0.23549091	          0.05000000	          0.05578620	          0.05766232	          0.05766233	          0.75308451	          0.95553432	          0.16978534	          0.06649888	          0.05766233	          0.72183507	          0.20806184	          0.20806184	          0.20806184	          0.65957099	          0.90547235	          0.19676077	          0.76015397	          0.86711064	          0.86710680	          0.05000000	          0.45608520	          0.70186774	          0.05000000	          0.05000000	          0.05000000	          0.23155864	          0.15027080	          0.15261097	          0.05000000	          0.05000000	          0.05000000	
          0.02758442	        -19.80380903	        -10.30849938	          3.65672295	          0.04785877	          0.81221982	          0.00630022	         51.84436918	         10.57811751	        -11.29477139	        -50.75978360	         21.91228679	        -15.10048016	          0.19100800	         -9.29463027	         -8.53289260	         -1.31988529	        -21.83485591	        -16.50285172	        -14.84869182	         35.19032212	        -15.07484026	          9.05226658	         -6.35280743	         -4.40957601	        -20.57733062	          6.86770265	         70.52887620	         10.09797595	        -13.68124295	         17.73413419	         61.08944136	          0.58406637	          0.64817217	          0.75026704	          0.05044495	          0.56733632	          0.63485799	          0.68110311	          0.23557469	          0.71140703	          0.05766233	          0.07603525	          0.13566178	          0.53564865	          0.60788691	          0.54744420	          0.34577049	          0.05000000	          0.05000001	          0.36812904	          0.67046451	          0.42388001	          0.34522616	          0.05766233	          0.05766233	          0.96893394	          0.31911928	          0.92979150	          0.05000000	          0.43941819	          0.45109095	          0.33980364	          0.05000000	          0.05000000	          0.05000000	          0.15686315	          0.06648585	          0.05766233	          0.88888158	          0.60628001	          0.36176897	          0.70448194	          0.91939291	          0.89764205	          0.20806183	          0.05000000	          0.05000000	          0.33177797	          0.13892066	          0.08865822	          0.05000000	          0.05000000	          0.05000000	          0.05000000	          0.05766233	          0.71070454	          0.30603288	          0.13565184	          0.11762601	          0.10199554	          0.86362904	          0.20419820	          0.05000000	          0.05000000	          0.05000000	          0.05000000	          0.70597168	          0.94539658	          0.14722377	          0.05766232	          0.05000000	          0.79171265	          0.18041398	          0.18041398	          0.18041397	          0.58207807	          0.78515056	          0.20289470	          0.65914250	          0.75188646	          0.75188313	          0.05000000	          0.39547927	          0.60860152	          0.05000000	          0.05000000	          0.05000000	          0.21302799	          0.13801993	          0.13233159	          0.05000000	          0.05000000	          0.05000000	
